<svg xmlns="http://www.w3.org/2000/svg" width="1200" height="1400" viewBox="0 0 1200 1400">
  <rect width="1200" height="1400" fill="#0f172a"/>
  <path d="M430 215c35-55 92-85 170-85s135 30 170 85l115 75 95 260-150 56-45-120v650H415V486l-45 120-150-56 95-260z" fill="#171717" stroke="#2a2a2a" stroke-width="12"/>
  <path d="M500 160c22 72 58 108 100 108s78-36 100-108" fill="none" stroke="#333" stroke-width="18" stroke-linecap="round"/>
  <path d="M505 730h190c50 0 90 40 90 90v160H415V820c0-50 40-90 90-90z" fill="#111" stroke="#2c2c2c" stroke-width="10"/>
  <path d="M500 250c34 70 166 70 200 0" fill="none" stroke="#0a0a0a" stroke-width="34" stroke-linecap="round"/>
</svg>
